<svg width="2160" height="192" viewBox="0 0 2160 192" fill="none" xmlns="http://www.w3.org/2000/svg">
<path d="M0 60.61H33.82L62.415 161.31H55.385L82.46 64.41H102.98L132.81 159.03H126.635L153.615 60.61H188.1L145.54 188.1H113.525L93.005 123.88H94.335L74.765 188.1H42.845L0 60.61Z" fill="#F4ECE2"/>
<path d="M205.286 188.1V60.61H235.686V188.1H205.286Z" fill="#F4ECE2"/>
<path d="M253.086 86.925V60.61H358.061V86.925H314.076L320.916 80.085V188.1H290.516V80.085L297.356 86.925H253.086Z" fill="#F4ECE2"/>
<path d="M353.335 188.1L396.275 60.61H434.94L475.505 188.1H443.49L436.555 165.68H392.57L385.635 188.1H353.335ZM400.265 143.165H429.62L415.18 96.52L400.265 143.165Z" fill="#F4ECE2"/>
<path d="M483.525 183.73V153.995C489.161 156.908 494.576 158.903 499.77 159.98C504.963 160.993 509.586 161.5 513.64 161.5C517.756 161.5 520.86 160.328 522.95 157.985C525.103 155.578 526.18 151.493 526.18 145.73V60.61H556.96V145.73C556.96 157.003 555.155 165.965 551.545 172.615C547.998 179.202 543.185 183.952 537.105 186.865C531.025 189.715 524.153 191.14 516.49 191.14C510.41 191.14 504.583 190.443 499.01 189.05C493.436 187.657 488.275 185.883 483.525 183.73Z" fill="#F4ECE2"/>
<path d="M623.438 60.61H657.258L685.852 161.31H678.823L705.897 64.41H726.417L756.247 159.03H750.073L777.052 60.61H811.537L768.977 188.1H736.962L716.443 123.88H717.772L698.203 188.1H666.282L623.438 60.61Z" fill="#F4ECE2"/>
<path d="M879.935 60.61H923.445L951.66 128.63H949.285L977.5 60.61H1019.3V188.1H988.71V97.375H992.89L960.115 176.225H940.45L907.865 97.565H910.335V188.1H879.935V60.61Z" fill="#F4ECE2"/>
<path d="M1103.91 191.14C1091.81 191.14 1081.24 188.607 1072.18 183.54C1063.19 178.41 1056.19 170.873 1051.19 160.93C1046.18 150.923 1043.68 138.605 1043.68 123.975C1043.68 108.965 1046.18 96.5833 1051.19 86.83C1056.19 77.0133 1063.19 69.73 1072.18 64.98C1081.24 60.1667 1091.81 57.76 1103.91 57.76C1116.13 57.76 1126.77 60.2617 1135.83 65.265C1144.95 70.2683 1152.01 77.6783 1157.02 87.495C1162.02 97.3117 1164.52 109.472 1164.52 123.975C1164.52 138.858 1162.02 151.303 1157.02 161.31C1152.01 171.253 1144.95 178.727 1135.83 183.73C1126.77 188.67 1116.13 191.14 1103.91 191.14ZM1103.91 163.875C1112.78 163.875 1119.87 160.392 1125.19 153.425C1130.51 146.395 1133.17 136.515 1133.17 123.785C1133.17 111.815 1130.51 102.378 1125.19 95.475C1119.87 88.5083 1112.78 85.025 1103.91 85.025C1095.3 85.025 1088.33 88.5083 1083.01 95.475C1077.69 102.378 1075.03 111.878 1075.03 123.975C1075.03 136.578 1077.69 146.395 1083.01 153.425C1088.33 160.392 1095.3 163.875 1103.91 163.875Z" fill="#F4ECE2"/>
<path d="M1177.28 183.73V153.995C1182.92 156.908 1188.34 158.903 1193.53 159.98C1198.72 160.993 1203.35 161.5 1207.4 161.5C1211.52 161.5 1214.62 160.328 1216.71 157.985C1218.86 155.578 1219.94 151.493 1219.94 145.73V60.61H1250.72V145.73C1250.72 157.003 1248.91 165.965 1245.3 172.615C1241.76 179.202 1236.94 183.952 1230.86 186.865C1224.78 189.715 1217.91 191.14 1210.25 191.14C1204.17 191.14 1198.34 190.443 1192.77 189.05C1187.2 187.657 1182.03 185.883 1177.28 183.73Z" fill="#F4ECE2"/>
<path d="M1280.71 188.1V60.61H1365.93V86.925H1311.11V111.435H1362.51V137.845H1311.11V161.5H1365.93V188.1H1280.71Z" fill="#F4ECE2"/>
<path d="M1385.84 183.73V153.995C1391.48 156.908 1396.89 158.903 1402.08 159.98C1407.28 160.993 1411.9 161.5 1415.95 161.5C1420.07 161.5 1423.17 160.328 1425.26 157.985C1427.42 155.578 1428.49 151.493 1428.49 145.73V60.61H1459.27V145.73C1459.27 157.003 1457.47 165.965 1453.86 172.615C1450.31 179.202 1445.5 183.952 1439.42 186.865C1433.34 189.715 1426.47 191.14 1418.8 191.14C1412.72 191.14 1406.9 190.443 1401.32 189.05C1395.75 187.657 1390.59 185.883 1385.84 183.73Z" fill="#F4ECE2"/>
<path d="M1614.77 60.61H1656.28L1569.55 148.77V108.015L1614.77 60.61ZM1594.53 112.1L1659.89 188.1H1621.04L1573.82 131.955L1594.53 112.1ZM1540.67 60.61H1571.26V188.1H1540.67V60.61Z" fill="#F4ECE2"/>
<path d="M1673.22 60.61H1703.62V137.94C1703.62 146.997 1705.93 153.52 1710.55 157.51C1715.17 161.5 1720.97 163.495 1727.94 163.495C1735.03 163.495 1740.89 161.5 1745.51 157.51C1750.2 153.52 1752.54 146.997 1752.54 137.94V60.61H1782.85V137.94C1782.85 148.707 1780.72 158.08 1776.48 166.06C1772.24 174.04 1766.03 180.215 1757.86 184.585C1749.69 188.955 1739.72 191.14 1727.94 191.14C1716.16 191.14 1706.18 188.955 1698.01 184.585C1689.9 180.215 1683.73 174.04 1679.49 166.06C1675.31 158.08 1673.22 148.707 1673.22 137.94V60.61Z" fill="#F4ECE2"/>
<path d="M1810.49 188.1V162.355L1880.51 77.33V88.255L1810.49 88.54V60.61H1909.77V85.975L1846.31 163.685V160.36L1909.77 160.17V188.1H1810.49ZM1855.33 49.305L1841.08 37.525L1880.41 0L1900.17 15.96L1855.33 49.305Z" fill="#F4ECE2"/>
<path d="M1939.02 60.61H1970.75L2021.96 137.75H2019.87V60.61H2050.27V188.1H2020.91L1964.39 103.36H1969.42V188.1H1939.02V60.61Z" fill="#F4ECE2"/>
<path d="M2082.46 188.1V60.61H2112.86V188.1H2082.46Z" fill="#F4ECE2"/>
</svg>
