<svg width="671" height="594" viewBox="0 0 671 594" fill="none" xmlns="http://www.w3.org/2000/svg">
<path d="M79.8585 150.232L43.9396 96.6029V150.232H5.23091V26.5527H43.9396V78.6099L79.3354 26.5527H123.101L80.556 85.7722L125.89 150.232H79.8585Z" fill="#243985"/>
<path d="M240.95 51.7079V150.232H202.241V135.209C199.219 139.867 195.15 143.652 190.036 146.564C185.037 149.475 179.051 150.931 172.076 150.931C160.801 150.931 151.966 147.146 145.573 139.576C139.296 132.006 136.157 121.758 136.157 108.831V51.7079H174.692V103.94C174.692 108.598 175.912 112.325 178.353 115.12C180.911 117.798 184.282 119.138 188.467 119.138C192.768 119.138 196.139 117.798 198.58 115.12C201.021 112.325 202.241 108.598 202.241 103.94V51.7079H240.95Z" fill="#243985"/>
<path d="M295.572 118.09H336.548V150.232H253.202V119.836L290.69 83.8506H253.725V51.7079H334.804V82.1037L295.572 118.09ZM318.414 28.649L273.254 45.0697V19.2158L318.414 0V28.649Z" fill="#243985"/>
<path d="M417.553 51.0091C428.829 51.0091 437.605 54.794 443.882 62.3639C450.275 69.9337 453.472 80.1821 453.472 93.1091V150.232H414.938V98.0004C414.938 93.342 413.659 89.6736 411.102 86.995C408.66 84.2 405.348 82.8025 401.163 82.8025C396.862 82.8025 393.491 84.2 391.05 86.995C388.609 89.6736 387.388 93.342 387.388 98.0004V150.232H348.679V51.7079H387.388V66.7311C390.41 62.0727 394.421 58.2878 399.419 55.3763C404.534 52.4649 410.578 51.0091 417.553 51.0091Z" fill="#243985"/>
<path d="M489.786 43.8469C483.044 43.8469 477.639 42.0418 473.57 38.4315C469.502 34.8213 467.467 30.2794 467.467 24.8058C467.467 19.2158 469.502 14.6156 473.57 11.0054C477.639 7.27869 483.044 5.41535 489.786 5.41535C496.412 5.41535 501.759 7.27869 505.827 11.0054C509.896 14.6156 511.93 19.2158 511.93 24.8058C511.93 30.2794 509.896 34.8213 505.827 38.4315C501.759 42.0418 496.412 43.8469 489.786 43.8469ZM508.966 51.7079V150.232H470.257V51.7079H508.966Z" fill="#243985"/>
<path d="M521.218 100.97C521.218 90.6052 522.961 81.6379 526.449 74.068C530.052 66.3817 534.934 60.5588 541.095 56.5992C547.256 52.5231 554.172 50.485 561.844 50.485C568.238 50.485 573.759 51.8243 578.409 54.5029C583.059 57.065 586.604 60.617 589.045 65.1589V51.7079H627.579V150.232H589.045V136.781C586.604 141.323 583.059 144.933 578.409 147.612C573.759 150.174 568.238 151.455 561.844 151.455C554.172 151.455 547.256 149.475 541.095 145.516C534.934 141.44 530.052 135.617 526.449 128.047C522.961 120.361 521.218 111.335 521.218 100.97ZM589.045 100.97C589.045 95.7294 587.708 91.6534 585.035 88.7419C582.361 85.8304 578.932 84.3747 574.747 84.3747C570.562 84.3747 567.133 85.8304 564.46 88.7419C561.786 91.6534 560.449 95.7294 560.449 100.97C560.449 106.211 561.786 110.287 564.46 113.198C567.133 116.11 570.562 117.566 574.747 117.566C578.932 117.566 582.361 116.11 585.035 113.198C587.708 110.287 589.045 106.211 589.045 100.97Z" fill="#243985"/>
<path d="M43.9396 286.431C46.3807 281.889 49.868 278.337 54.4014 275.775C59.0511 273.097 64.5726 271.757 70.966 271.757C78.638 271.757 85.5544 273.796 91.7152 277.872C97.8761 281.831 102.7 287.654 106.187 295.34C109.791 302.91 111.593 311.878 111.593 322.243C111.593 332.607 109.791 341.633 106.187 349.319C102.7 356.889 97.8761 362.712 91.7152 366.788C85.5544 370.748 78.638 372.728 70.966 372.728C64.5726 372.728 59.0511 371.446 54.4014 368.884C49.868 366.206 46.3807 362.596 43.9396 358.054V418.671H5.23091V272.98H43.9396V286.431ZM72.3609 322.243C72.3609 317.002 71.0241 312.926 68.3505 310.014C65.6769 307.103 62.2478 305.647 58.0631 305.647C53.8783 305.647 50.4492 307.103 47.7756 310.014C45.102 312.926 43.7653 317.002 43.7653 322.243C43.7653 327.483 45.102 331.559 47.7756 334.471C50.4492 337.382 53.8783 338.838 58.0631 338.838C62.2478 338.838 65.6769 337.382 68.3505 334.471C71.0241 331.559 72.3609 327.483 72.3609 322.243Z" fill="#243985"/>
<path d="M162.452 291.148C166.405 285.441 171.229 280.9 176.925 277.522C182.62 274.028 188.549 272.282 194.71 272.282V313.683H183.725C176.401 313.683 170.996 314.964 167.509 317.526C164.138 320.088 162.452 324.63 162.452 331.152V371.505H123.744V272.98H162.452V291.148Z" fill="#243985"/>
<path d="M251.865 372.728C241.985 372.728 233.092 370.69 225.188 366.613C217.283 362.537 211.064 356.714 206.531 349.145C202.114 341.458 199.905 332.491 199.905 322.243C199.905 311.994 202.114 303.085 206.531 295.515C211.064 287.829 217.283 281.948 225.188 277.872C233.092 273.796 241.985 271.757 251.865 271.757C261.746 271.757 270.639 273.796 278.543 277.872C286.448 281.948 292.608 287.829 297.026 295.515C301.559 303.085 303.826 311.994 303.826 322.243C303.826 332.491 301.559 341.458 297.026 349.145C292.608 356.714 286.448 362.537 278.543 366.613C270.639 370.69 261.746 372.728 251.865 372.728ZM251.865 339.187C255.469 339.187 258.491 337.79 260.932 334.995C263.373 332.083 264.594 327.833 264.594 322.243C264.594 316.652 263.373 312.46 260.932 309.665C258.491 306.753 255.469 305.298 251.865 305.298C248.262 305.298 245.24 306.753 242.799 309.665C240.357 312.46 239.137 316.652 239.137 322.243C239.137 327.833 240.299 332.083 242.624 334.995C245.065 337.79 248.146 339.187 251.865 339.187Z" fill="#243985"/>
<path d="M335.166 265.119C328.424 265.119 323.019 263.314 318.95 259.704C314.882 256.094 312.848 251.552 312.848 246.078C312.848 240.488 314.882 235.888 318.95 232.278C323.019 228.551 328.424 226.688 335.166 226.688C341.792 226.688 347.139 228.551 351.208 232.278C355.276 235.888 357.31 240.488 357.31 246.078C357.31 251.552 355.276 256.094 351.208 259.704C347.139 263.314 341.792 265.119 335.166 265.119ZM354.695 378.318C354.695 405.22 341.211 418.671 314.243 418.671H301.34V385.655H308.837C311.395 385.655 313.196 385.13 314.243 384.082C315.405 383.034 315.986 381.346 315.986 379.016V272.98H354.695V378.318Z" fill="#243985"/>
<path d="M467.04 321.369C467.04 324.048 466.865 326.61 466.516 329.055H404.269C404.85 337.557 408.395 341.808 414.905 341.808C419.09 341.808 422.112 339.886 423.972 336.043H464.947C463.552 343.03 460.588 349.319 456.055 354.909C451.637 360.383 446 364.75 439.141 368.011C432.399 371.155 424.96 372.728 416.823 372.728C407.058 372.728 398.34 370.69 390.668 366.613C383.113 362.537 377.184 356.714 372.883 349.145C368.699 341.458 366.606 332.491 366.606 322.243C366.606 311.994 368.699 303.085 372.883 295.515C377.184 287.829 383.113 281.948 390.668 277.872C398.34 273.796 407.058 271.757 416.823 271.757C426.587 271.757 435.247 273.796 442.803 277.872C450.475 281.831 456.403 287.538 460.588 294.991C464.889 302.444 467.04 311.237 467.04 321.369ZM427.808 312.111C427.808 308.85 426.762 306.404 424.669 304.774C422.577 303.027 419.961 302.153 416.823 302.153C409.965 302.153 405.954 305.472 404.792 312.111H427.808Z" fill="#243985"/>
<path d="M542.227 371.505L517.991 332.2V371.505H479.282V242.235H517.991V309.84L542.576 272.98H587.562L550.771 322.592L588.433 371.505H542.227Z" fill="#243985"/>
<path d="M658.315 338.489V371.505H643.668C616.7 371.505 603.216 358.054 603.216 331.152V305.298H591.011V272.98H603.216V249.223H641.925V272.98H657.966V305.298H641.925V331.85C641.925 334.18 642.448 335.868 643.494 336.916C644.657 337.964 646.516 338.489 649.074 338.489H658.315Z" fill="#243985"/>
<path d="M51.9603 594C42.0797 594 33.1872 591.962 25.2827 587.886C17.3782 583.81 11.1593 577.987 6.62581 570.417C2.20861 562.731 0 553.763 0 543.515C0 533.267 2.20861 524.357 6.62581 516.788C11.1593 509.101 17.3782 503.22 25.2827 499.144C33.1872 495.068 42.0797 493.03 51.9603 493.03C61.8409 493.03 70.7335 495.068 78.638 499.144C86.5424 503.22 92.7033 509.101 97.1205 516.788C101.654 524.357 103.921 533.267 103.921 543.515C103.921 553.763 101.654 562.731 97.1205 570.417C92.7033 577.987 86.5424 583.81 78.638 587.886C70.7335 591.962 61.8409 594 51.9603 594ZM51.9603 560.46C55.5639 560.46 58.5862 559.062 61.0272 556.267C63.4683 553.356 64.6889 549.105 64.6889 543.515C64.6889 537.925 63.4683 533.732 61.0272 530.937C58.5862 528.026 55.5639 526.57 51.9603 526.57C48.3568 526.57 45.3345 528.026 42.8934 530.937C40.4523 533.732 39.2318 537.925 39.2318 543.515C39.2318 549.105 40.3942 553.356 42.7191 556.267C45.1602 559.062 48.2406 560.46 51.9603 560.46Z" fill="#243985"/>
<path d="M265.336 494.253L241.972 592.777H198.381L186.524 537.226L173.97 592.777H130.379L107.189 494.253H145.549L153.744 554.171L166.472 494.253H207.796L221.222 554.87L229.592 494.253H265.336Z" fill="#243985"/>
<path d="M268.356 543.515C268.356 533.15 270.1 524.183 273.587 516.613C277.191 508.927 282.073 503.104 288.234 499.144C294.395 495.068 301.311 493.03 308.983 493.03C315.376 493.03 320.898 494.369 325.548 497.048C330.197 499.61 333.743 503.162 336.184 507.704V494.253H374.718V592.777H336.184V579.326C333.743 583.868 330.197 587.478 325.548 590.157C320.898 592.719 315.376 594 308.983 594C301.311 594 294.395 592.02 288.234 588.061C282.073 583.985 277.191 578.162 273.587 570.592C270.1 562.905 268.356 553.88 268.356 543.515ZM336.184 543.515C336.184 538.274 334.847 534.198 332.173 531.287C329.5 528.375 326.071 526.92 321.886 526.92C317.701 526.92 314.272 528.375 311.599 531.287C308.925 534.198 307.588 538.274 307.588 543.515C307.588 548.756 308.925 552.832 311.599 555.743C314.272 558.655 317.701 560.11 321.886 560.11C326.071 560.11 329.5 558.655 332.173 555.743C334.847 552.832 336.184 548.756 336.184 543.515Z" fill="#243985"/>
<path d="M460.974 493.554C472.249 493.554 481.025 497.339 487.303 504.909C493.696 512.479 496.893 522.727 496.893 535.654V592.777H458.358V540.545C458.358 535.887 457.079 532.218 454.522 529.54C452.081 526.745 448.768 525.347 444.583 525.347C440.282 525.347 436.911 526.745 434.47 529.54C432.029 532.218 430.809 535.887 430.809 540.545V592.777H392.1V494.253H430.809V509.276C433.831 504.618 437.841 500.833 442.84 497.921C447.954 495.01 453.999 493.554 460.974 493.554Z" fill="#243985"/>
<path d="M533.206 486.392C526.464 486.392 521.059 484.587 516.991 480.976C512.922 477.366 510.888 472.824 510.888 467.351C510.888 461.761 512.922 457.16 516.991 453.55C521.059 449.824 526.464 447.96 533.206 447.96C539.832 447.96 545.179 449.824 549.248 453.55C553.316 457.16 555.351 461.761 555.351 467.351C555.351 472.824 553.316 477.366 549.248 480.976C545.179 484.587 539.832 486.392 533.206 486.392ZM552.386 494.253V592.777H513.678V494.253H552.386Z" fill="#243985"/>
<path d="M564.638 543.515C564.638 533.15 566.382 524.183 569.869 516.613C573.473 508.927 578.355 503.104 584.516 499.144C590.676 495.068 597.593 493.03 605.265 493.03C611.658 493.03 617.18 494.369 621.829 497.048C626.479 499.61 630.025 503.162 632.466 507.704V494.253H671V592.777H632.466V579.326C630.025 583.868 626.479 587.478 621.829 590.157C617.18 592.719 611.658 594 605.265 594C597.593 594 590.676 592.02 584.516 588.061C578.355 583.985 573.473 578.162 569.869 570.592C566.382 562.905 564.638 553.88 564.638 543.515ZM632.466 543.515C632.466 538.274 631.129 534.198 628.455 531.287C625.782 528.375 622.353 526.92 618.168 526.92C613.983 526.92 610.554 528.375 607.88 531.287C605.207 534.198 603.87 538.274 603.87 543.515C603.87 548.756 605.207 552.832 607.88 555.743C610.554 558.655 613.983 560.11 618.168 560.11C622.353 560.11 625.782 558.655 628.455 555.743C631.129 552.832 632.466 548.756 632.466 543.515Z" fill="#243985"/>
</svg>
