<svg width="422" height="422" viewBox="0 0 422 422" fill="none" xmlns="http://www.w3.org/2000/svg">
<path d="M380.844 220.398C380.966 217.974 381.598 216.017 382.741 214.525C383.883 213.061 385.444 212.285 387.424 212.197L387.332 214.035C385.913 214.097 384.763 214.68 383.879 215.784C382.995 216.914 382.503 218.478 382.402 220.476C382.319 222.127 382.667 223.453 383.444 224.453C384.247 225.481 385.261 226.026 386.486 226.088C387.338 226.13 388.044 225.899 388.604 225.393C389.188 224.915 389.647 224.297 389.978 223.54C390.31 222.782 390.682 221.746 391.096 220.432C391.602 218.855 392.08 217.584 392.529 216.619C393.004 215.655 393.672 214.847 394.533 214.196C395.393 213.545 396.516 213.254 397.9 213.324C398.913 213.375 399.829 213.728 400.651 214.383C401.499 215.04 402.149 215.927 402.6 217.044C403.051 218.162 403.242 219.413 403.172 220.798C403.059 223.061 402.394 224.857 401.18 226.185C399.99 227.54 398.394 228.221 396.391 228.227L396.482 226.429C397.924 226.422 399.124 225.921 400.081 224.928C401.039 223.935 401.564 222.519 401.656 220.682C401.734 219.137 401.399 217.838 400.65 216.786C399.902 215.734 398.955 215.179 397.81 215.122C396.798 215.071 395.958 215.309 395.291 215.836C394.649 216.391 394.134 217.073 393.747 217.881C393.384 218.718 392.982 219.819 392.54 221.185C392.064 222.683 391.603 223.875 391.159 224.76C390.739 225.674 390.14 226.431 389.362 227.033C388.611 227.636 387.623 227.907 386.398 227.845C385.279 227.789 384.283 227.432 383.408 226.774C382.533 226.116 381.87 225.228 381.419 224.111C380.968 222.994 380.776 221.756 380.844 220.398Z" fill="white"/>
<path d="M391.343 232.492C393.576 232.883 395.444 233.656 396.947 234.812C398.446 235.995 399.493 237.437 400.089 239.138C400.706 240.871 400.838 242.748 400.484 244.771C400.016 247.45 398.962 249.526 397.324 250.999C395.681 252.499 393.693 253.261 391.361 253.286L391.684 251.434C393.583 251.414 395.184 250.774 396.487 249.513C397.786 248.278 398.619 246.61 398.987 244.509C399.263 242.933 399.158 241.439 398.674 240.028C398.217 238.621 397.334 237.398 396.027 236.357C394.742 235.347 393.075 234.663 391.026 234.305C388.951 233.942 387.138 234.017 385.586 234.531C384.03 235.07 382.784 235.922 381.85 237.085C380.915 238.248 380.31 239.618 380.035 241.194C379.667 243.295 379.885 245.147 380.687 246.749C381.485 248.378 382.774 249.524 384.553 250.187L384.229 252.039C382.07 251.228 380.459 249.836 379.396 247.863C378.333 245.891 378.034 243.578 378.498 240.925C378.852 238.902 379.613 237.181 380.782 235.761C381.946 234.368 383.434 233.369 385.245 232.765C387.078 232.193 389.11 232.102 391.343 232.492Z" fill="white"/>
<path d="M391.889 261.301C393.279 262.256 394.184 263.5 394.603 265.036C395.047 266.579 394.979 268.362 394.397 270.387L392.59 269.868L392.756 269.291C393.345 267.241 393.245 265.367 392.457 263.67C391.694 261.98 389.992 260.756 387.352 259.998L375.319 256.54L375.816 254.81L396.692 260.808L396.194 262.538L391.889 261.301Z" fill="white"/>
<path d="M368.496 275.539C369.264 273.664 370.376 272.146 371.832 270.984C373.288 269.823 374.97 269.129 376.879 268.902C378.802 268.711 380.812 269.045 382.909 269.904C384.982 270.753 386.618 271.929 387.819 273.429C389.044 274.94 389.756 276.615 389.953 278.454C390.165 280.327 389.887 282.202 389.118 284.077C388.35 285.952 387.238 287.471 385.782 288.632C384.351 289.804 382.686 290.49 380.788 290.692C378.879 290.919 376.876 290.602 374.779 289.743C372.682 288.883 371.02 287.698 369.795 286.187C368.594 284.687 367.888 282.999 367.676 281.126C367.454 279.277 367.727 277.415 368.496 275.539ZM369.976 276.146C369.38 277.602 369.144 279.09 369.27 280.612C369.41 282.168 369.99 283.601 371.009 284.912C372.028 286.223 373.512 287.278 375.462 288.077C377.386 288.866 379.172 289.151 380.817 288.932C382.463 288.713 383.865 288.106 385.022 287.11C386.204 286.125 387.093 284.904 387.69 283.449C388.287 281.993 388.51 280.499 388.359 278.968C388.223 277.471 387.646 276.067 386.627 274.756C385.608 273.445 384.136 272.395 382.211 271.607C380.262 270.808 378.469 270.505 376.834 270.7C375.188 270.919 373.779 271.508 372.607 272.469C371.45 273.465 370.573 274.69 369.976 276.146Z" fill="white"/>
<path d="M387.951 304.498L361.723 290.779L362.557 289.184L388.786 302.903L387.951 304.498Z" fill="white"/>
<path d="M383.227 312.941L357.687 297.98L358.596 296.426L384.137 311.388L383.227 312.941Z" fill="white"/>
<path d="M358.721 316.907C360.458 318.322 361.699 319.901 362.446 321.644C363.176 323.408 363.395 325.186 363.105 326.979C362.797 328.792 362.003 330.484 360.723 332.055C359.325 333.771 357.679 334.906 355.783 335.46C353.908 336.031 352.078 336.019 350.292 335.424L360.805 343.988L359.668 345.384L336.719 326.689L337.856 325.294L342.322 328.931C341.341 327.307 340.911 325.512 341.033 323.547C341.175 321.6 341.97 319.737 343.418 317.959C344.698 316.387 346.195 315.268 347.909 314.6C349.626 313.97 351.422 313.833 353.297 314.191C355.176 314.587 356.984 315.492 358.721 316.907ZM346.291 332.165C347.759 333.361 349.304 334.103 350.926 334.393C352.551 334.719 354.093 334.6 355.552 334.034C357.031 333.485 358.301 332.559 359.362 331.256C360.474 329.892 361.151 328.448 361.393 326.926C361.657 325.421 361.466 323.924 360.821 322.436C360.176 320.947 359.089 319.58 357.559 318.334C356.029 317.087 354.47 316.299 352.882 315.968C351.294 315.638 349.779 315.745 348.337 316.29C346.879 316.856 345.602 317.811 344.507 319.155C343.446 320.458 342.786 321.88 342.527 323.423C342.271 325.004 342.457 326.548 343.085 328.057C343.734 329.583 344.803 330.953 346.291 332.165Z" fill="white"/>
<path d="M326.294 336.254C327.784 334.879 329.433 333.973 331.243 333.536C333.054 333.099 334.872 333.181 336.697 333.783C338.521 334.422 340.201 335.574 341.739 337.24C343.258 338.886 344.245 340.642 344.698 342.51C345.17 344.397 345.107 346.216 344.509 347.966C343.909 349.753 342.864 351.334 341.375 352.709C339.886 354.084 338.236 354.99 336.426 355.427C334.634 355.883 332.835 355.802 331.029 355.183C329.204 354.581 327.522 353.448 325.985 351.782C324.447 350.117 323.443 348.34 322.971 346.453C322.517 344.586 322.59 342.758 323.19 340.97C323.77 339.201 324.805 337.629 326.294 336.254ZM327.38 337.43C326.224 338.497 325.381 339.746 324.852 341.178C324.321 342.648 324.241 344.192 324.61 345.811C324.979 347.43 325.878 349.013 327.307 350.561C328.718 352.09 330.216 353.102 331.8 353.6C333.384 354.097 334.911 354.139 336.381 353.726C337.868 353.333 339.19 352.603 340.346 351.536C341.502 350.468 342.336 349.209 342.847 347.758C343.356 346.344 343.426 344.827 343.057 343.209C342.688 341.59 341.798 340.016 340.387 338.488C338.958 336.94 337.461 335.908 335.897 335.393C334.312 334.895 332.786 334.834 331.318 335.209C329.849 335.622 328.536 336.363 327.38 337.43Z" fill="white"/>
<path d="M304.458 379.851L298.087 357.989L299.518 357.034L315.956 369.194L311.061 349.327L312.492 348.372L330.241 362.639L328.677 363.683L312.893 350.558L318.031 370.79L316.601 371.745L299.963 359.286L305.989 378.83L304.458 379.851Z" fill="white"/>
<path d="M290.353 386.732C288.002 387.811 285.753 387.962 283.608 387.185C281.473 386.433 279.756 384.639 278.455 381.803L273.153 370.241L274.753 369.507L280.005 380.961C281.083 383.312 282.5 384.833 284.254 385.525C286.02 386.24 287.921 386.131 289.957 385.198C292.09 384.22 293.488 382.757 294.15 380.811C294.788 378.875 294.496 376.574 293.273 373.908L288.387 363.255L290.024 362.504L299.077 382.247L297.441 382.998L295.524 378.816C295.644 380.551 295.24 382.1 294.311 383.465C293.369 384.865 292.05 385.954 290.353 386.732Z" fill="white"/>
<path d="M252.855 376.14C255.204 375.532 257.261 375.551 259.026 376.196C260.764 376.847 261.971 378.105 262.647 379.969L260.865 380.43C260.382 379.095 259.482 378.171 258.165 377.658C256.822 377.152 255.182 377.149 253.246 377.65C251.645 378.064 250.484 378.792 249.761 379.833C249.02 380.906 248.803 382.037 249.11 383.224C249.324 384.05 249.756 384.655 250.406 385.037C251.037 385.453 251.763 385.705 252.585 385.795C253.408 385.886 254.508 385.932 255.885 385.933C257.541 385.945 258.897 386.021 259.952 386.161C261.014 386.327 261.984 386.723 262.863 387.35C263.741 387.977 264.354 388.961 264.701 390.304C264.955 391.285 264.892 392.265 264.512 393.245C264.139 394.25 263.487 395.135 262.555 395.9C261.624 396.664 260.487 397.22 259.144 397.568C256.95 398.136 255.038 398.038 253.408 397.276C251.759 396.545 250.633 395.226 250.028 393.316L251.771 392.865C252.209 394.239 253.045 395.235 254.279 395.852C255.513 396.469 257.021 396.547 258.802 396.086C260.299 395.699 261.438 394.991 262.219 393.962C263 392.934 263.246 391.865 262.959 390.755C262.705 389.774 262.227 389.043 261.524 388.564C260.803 388.117 259.998 387.83 259.111 387.701C258.205 387.605 257.034 387.55 255.598 387.536C254.026 387.53 252.751 387.447 251.773 387.287C250.776 387.159 249.874 386.814 249.068 386.251C248.268 385.715 247.714 384.853 247.407 383.665C247.126 382.581 247.169 381.523 247.536 380.492C247.902 379.46 248.551 378.562 249.483 377.798C250.414 377.033 251.538 376.481 252.855 376.14Z" fill="white"/>
<path d="M244.762 389.671C245.058 391.918 244.879 393.932 244.226 395.713C243.547 397.497 242.485 398.928 241.04 400.006C239.572 401.114 237.82 401.802 235.784 402.07C233.088 402.425 230.791 402.042 228.895 400.92C226.973 399.801 225.65 398.133 224.927 395.915L226.791 395.67C227.379 397.475 228.469 398.811 230.063 399.677C231.63 400.546 233.471 400.842 235.586 400.563C237.172 400.354 238.566 399.807 239.767 398.923C240.972 398.065 241.876 396.856 242.477 395.298C243.056 393.769 243.209 391.973 242.938 389.911C242.662 387.823 242.047 386.115 241.093 384.788C240.111 383.465 238.926 382.532 237.536 381.989C236.147 381.446 234.659 381.279 233.073 381.488C230.958 381.766 229.256 382.529 227.968 383.774C226.653 385.023 225.946 386.596 225.846 388.492L223.982 388.737C224.109 386.434 224.954 384.48 226.518 382.876C228.082 381.271 230.199 380.293 232.869 379.941C234.905 379.673 236.775 379.884 238.48 380.574C240.158 381.267 241.556 382.387 242.675 383.934C243.77 385.512 244.466 387.424 244.762 389.671Z" fill="white"/>
<path d="M217.54 398.793C217.05 400.407 216.136 401.645 214.799 402.508C213.463 403.398 211.742 403.872 209.636 403.928L209.585 402.049L210.185 402.033C212.317 401.975 214.073 401.314 215.453 400.05C216.833 398.812 217.487 396.82 217.412 394.075L217.074 381.559L218.874 381.511L219.46 403.223L217.661 403.271L217.54 398.793Z" fill="white"/>
<path d="M196.254 380.721C198.273 380.893 200.055 381.5 201.599 382.541C203.143 383.582 204.308 384.979 205.096 386.732C205.855 388.51 206.138 390.528 205.946 392.786C205.756 395.018 205.125 396.931 204.053 398.526C202.978 400.148 201.593 401.328 199.898 402.067C198.173 402.83 196.302 403.126 194.282 402.954C192.263 402.782 190.481 402.176 188.937 401.135C187.391 400.12 186.237 398.737 185.476 396.986C184.689 395.233 184.391 393.228 184.583 390.969C184.775 388.711 185.409 386.771 186.483 385.149C187.556 383.554 188.954 382.375 190.678 381.612C192.376 380.846 194.234 380.55 196.254 380.721ZM196.118 382.316C194.55 382.182 193.06 382.403 191.646 382.979C190.203 383.579 189.009 384.561 188.063 385.926C187.117 387.291 186.555 389.023 186.377 391.122C186.2 393.194 186.463 394.983 187.165 396.488C187.866 397.993 188.865 399.148 190.162 399.954C191.456 400.787 192.887 401.27 194.454 401.403C196.022 401.537 197.514 401.302 198.93 400.7C200.317 400.122 201.484 399.151 202.43 397.786C203.375 396.421 203.936 394.703 204.113 392.63C204.291 390.531 204.043 388.73 203.368 387.228C202.666 385.723 201.682 384.555 200.414 383.725C199.118 382.919 197.686 382.449 196.118 382.316Z" fill="white"/>
<path d="M174.278 407.918L179.49 378.78L181.262 379.097L176.05 408.235L174.278 407.918Z" fill="white"/>
<path d="M164.742 405.909L171.393 377.066L173.147 377.471L166.496 406.314L164.742 405.909Z" fill="white"/>
<path d="M153.888 383.771C153.054 385.85 151.916 387.505 150.474 388.737C149.007 389.959 147.375 390.697 145.577 390.953C143.754 391.199 141.903 390.945 140.022 390.19C137.967 389.366 136.394 388.132 135.301 386.487C134.198 384.866 133.665 383.116 133.702 381.234L128.654 393.819L126.983 393.149L138.002 365.677L139.673 366.347L137.528 371.693C138.788 370.273 140.373 369.328 142.285 368.86C144.187 368.416 146.202 368.621 148.331 369.475C150.212 370.229 151.726 371.325 152.873 372.762C153.986 374.214 154.651 375.888 154.867 377.785C155.048 379.697 154.722 381.692 153.888 383.771ZM135.622 376.445C134.918 378.202 134.668 379.898 134.875 381.532C135.047 383.181 135.62 384.618 136.594 385.842C137.558 387.091 138.82 388.028 140.38 388.653C142.013 389.308 143.593 389.525 145.118 389.304C146.633 389.107 148.006 388.48 149.235 387.421C150.464 386.362 151.446 384.917 152.18 383.086C152.915 381.254 153.204 379.531 153.047 377.917C152.89 376.303 152.337 374.888 151.387 373.674C150.413 372.45 149.121 371.515 147.512 370.87C145.953 370.245 144.398 370.038 142.848 370.249C141.263 370.476 139.844 371.113 138.59 372.162C137.326 373.235 136.337 374.663 135.622 376.445Z" fill="white"/>
<path d="M125.815 358.576C127.571 359.587 128.928 360.892 129.885 362.489C130.842 364.087 131.306 365.846 131.276 367.768C131.21 369.699 130.612 371.647 129.48 373.611C128.362 375.553 126.98 377.018 125.333 378.008C123.672 379.021 121.917 379.503 120.069 379.454C118.183 379.414 116.363 378.889 114.606 377.877C112.85 376.866 111.493 375.562 110.536 373.964C109.566 372.39 109.107 370.648 109.16 368.74C109.19 366.818 109.77 364.875 110.901 362.911C112.033 360.947 113.428 359.458 115.089 358.445C116.736 357.455 118.502 356.98 120.388 357.019C122.25 357.046 124.059 357.564 125.815 358.576ZM125.017 359.962C123.653 359.177 122.209 358.746 120.685 358.668C119.124 358.599 117.626 358.983 116.191 359.818C114.756 360.654 113.513 361.984 112.461 363.81C111.423 365.612 110.903 367.343 110.9 369.004C110.898 370.664 111.313 372.134 112.146 373.414C112.965 374.716 114.056 375.76 115.42 376.546C116.783 377.331 118.234 377.751 119.771 377.806C121.273 377.87 122.741 377.485 124.176 376.65C125.611 375.814 126.848 374.496 127.886 372.693C128.937 370.868 129.476 369.131 129.501 367.484C129.503 365.824 129.106 364.349 128.31 363.06C127.478 361.78 126.38 360.748 125.017 359.962Z" fill="white"/>
<path d="M77.6886 350.573L96.7096 338.053L98.0432 339.14L91.2567 358.427L108.804 347.906L110.138 348.992L101.723 370.152L100.266 368.965L108.167 350.018L90.3416 360.88L89.0081 359.794L96.0219 340.227L79.1151 351.735L77.6886 350.573Z" fill="white"/>
<path d="M66.972 339.23C65.2453 337.304 64.4347 335.201 64.5402 332.922C64.6258 330.661 65.8301 328.488 68.1532 326.406L77.6243 317.915L78.7992 319.225L69.4174 327.636C67.4915 329.363 66.4583 331.167 66.3179 333.047C66.1576 334.946 66.8251 336.729 68.3204 338.397C69.8869 340.144 71.6978 341.046 73.7532 341.101C75.7907 341.137 77.9015 340.176 80.0856 338.217L88.8121 330.394L90.0137 331.734L73.8414 346.233L72.6398 344.893L76.0649 341.822C74.4443 342.451 72.8446 342.525 71.2658 342.042C69.6493 341.557 68.218 340.62 66.972 339.23Z" fill="white"/>
<path d="M65.9174 300.313C67.1975 302.375 67.7923 304.344 67.702 306.221C67.5976 308.075 66.7564 309.602 65.1784 310.801L64.2078 309.238C65.3382 308.379 65.9521 307.245 66.0495 305.834C66.1329 304.401 65.6471 302.835 64.5921 301.136C63.72 299.732 62.6796 298.84 61.4709 298.46C60.2255 298.072 59.0817 298.201 58.0396 298.849C57.3146 299.299 56.8663 299.891 56.6945 300.625C56.486 301.351 56.4611 302.12 56.6198 302.932C56.7786 303.743 57.0623 304.807 57.4711 306.123C57.9526 307.707 58.2837 309.024 58.4643 310.073C58.6223 311.136 58.533 312.181 58.1965 313.206C57.8599 314.231 57.1026 315.109 55.9245 315.841C55.0636 316.375 54.1089 316.607 53.0605 316.536C51.9893 316.479 50.9502 316.12 49.943 315.458C48.9358 314.797 48.0665 313.877 47.335 312.699C46.1394 310.773 45.6629 308.919 45.9056 307.136C46.1116 305.344 47.036 303.876 48.6789 302.73L49.6284 304.259C48.4472 305.087 47.7458 306.182 47.5241 307.543C47.3024 308.905 47.6769 310.368 48.6475 311.931C49.4633 313.245 50.4783 314.121 51.6925 314.56C52.9067 314.999 54.0009 314.916 54.975 314.311C55.8359 313.777 56.3905 313.103 56.6388 312.289C56.8504 311.468 56.8855 310.614 56.7439 309.729C56.5657 308.835 56.2694 307.701 55.8551 306.326C55.3931 304.823 55.0929 303.582 54.9545 302.6C54.7793 301.61 54.8401 300.647 55.1369 299.709C55.411 298.786 56.0691 298 57.1112 297.353C58.0627 296.763 59.0853 296.489 60.1791 296.531C61.2729 296.574 62.3234 296.926 63.3306 297.588C64.3378 298.25 65.2 299.158 65.9174 300.313Z" fill="white"/>
<path d="M50.5618 296.646C48.505 297.598 46.5295 298.028 44.6352 297.936C42.7297 297.819 41.0472 297.232 39.5875 296.174C38.0924 295.103 36.9134 293.636 36.0506 291.773C34.9076 289.304 34.5889 286.998 35.0946 284.854C35.5891 282.685 36.7872 280.926 38.689 279.575L39.479 281.281C37.9308 282.38 36.9809 283.819 36.6293 285.598C36.2665 287.353 36.5334 289.198 37.4299 291.134C38.1022 292.586 39.0396 293.753 40.242 294.636C41.4203 295.531 42.8429 296.033 44.51 296.142C46.1416 296.239 47.9012 295.85 49.7886 294.976C51.7003 294.091 53.1469 292.995 54.1287 291.688C55.0992 290.357 55.6365 288.947 55.7408 287.459C55.845 285.971 55.561 284.501 54.8886 283.049C53.9922 281.113 52.7574 279.716 51.1844 278.857C49.6001 277.975 47.8882 277.768 46.0487 278.238L45.2587 276.532C47.4948 275.967 49.6118 276.191 51.6097 277.206C53.6076 278.22 55.1724 279.949 56.3042 282.393C57.1671 284.257 57.5233 286.105 57.3729 287.937C57.2114 289.746 56.5588 291.415 55.4154 292.944C54.2365 294.459 52.6187 295.693 50.5618 296.646Z" fill="white"/>
<path d="M33.7755 273.551C32.089 273.563 30.6349 273.059 29.4133 272.039C28.1664 271.028 27.2028 269.525 26.5223 267.531L28.3015 266.924L28.4953 267.492C29.1844 269.511 30.3376 270.991 31.9551 271.933C33.5472 272.883 35.643 272.914 38.2425 272.027L50.0914 267.983L50.6728 269.686L30.117 276.702L29.5356 274.998L33.7755 273.551Z" fill="white"/>
<path d="M44.8212 248.439C45.2615 250.418 45.2158 252.299 44.6842 254.084C44.1526 255.869 43.1683 257.399 41.7312 258.675C40.2623 259.931 38.4216 260.805 36.209 261.298C34.0225 261.784 32.008 261.755 30.1653 261.209C28.2966 260.668 26.7561 259.7 25.5437 258.303C24.2995 256.886 23.4572 255.189 23.0169 253.211C22.5766 251.232 22.6222 249.351 23.1538 247.566C23.6594 245.787 24.6336 244.272 26.0765 243.022C27.5136 241.746 29.3384 240.862 31.5509 240.37C33.7635 239.877 35.8041 239.901 37.6727 240.441C39.5154 240.987 41.0588 241.969 42.303 243.386C43.5415 244.777 44.3808 246.461 44.8212 248.439ZM43.2594 248.787C42.9175 247.251 42.2605 245.895 41.2883 244.718C40.2842 243.521 38.9896 242.675 37.4043 242.181C35.8191 241.687 33.9984 241.669 31.942 242.127C29.9117 242.579 28.2835 243.364 27.0575 244.484C25.8315 245.604 25.0279 246.903 24.6466 248.381C24.2393 249.865 24.2065 251.375 24.5483 252.911C24.8902 254.446 25.5602 255.8 26.5585 256.971C27.525 258.122 28.8008 258.944 30.386 259.438C31.9712 259.932 33.779 259.953 35.8093 259.502C37.8656 259.044 39.5097 258.268 40.7415 257.174C41.9675 256.055 42.787 254.766 43.2002 253.308C43.5815 251.83 43.6012 250.323 43.2594 248.787Z" fill="white"/>
<path d="M12.267 235.433L41.6422 231.793L41.8636 233.579L12.4884 237.22L12.267 235.433Z" fill="white"/>
<path d="M11.3633 226.173L40.8753 223.892L41.014 225.687L11.502 227.968L11.3633 226.173Z" fill="white"/>
<path d="M29.1999 208.307C26.9665 208.134 25.0463 207.545 23.4391 206.538C21.834 205.504 20.64 204.168 19.8573 202.53C19.0767 200.865 18.7644 199.022 18.9206 197.001C19.0912 194.794 19.7975 192.923 21.0395 191.388C22.255 189.85 23.7658 188.817 25.5719 188.288L12.0523 187.243L12.191 185.448L41.703 187.729L41.5642 189.524L35.8214 189.08C37.5534 189.856 38.9294 191.086 39.9493 192.769C40.9427 194.451 41.351 196.435 41.1742 198.721C41.018 200.742 40.4263 202.515 39.399 204.04C38.3472 205.537 36.9489 206.673 35.204 207.447C33.4346 208.193 31.4332 208.48 29.1999 208.307ZM30.7166 188.686C28.8289 188.54 27.1364 188.81 25.639 189.497C24.1171 190.155 22.9182 191.132 22.0423 192.428C21.1399 193.722 20.624 195.207 20.4945 196.882C20.3588 198.637 20.6252 200.209 21.2934 201.598C21.9351 202.985 22.945 204.106 24.3232 204.961C25.7014 205.817 27.3742 206.32 29.3417 206.472C31.3091 206.625 33.0395 206.384 34.5328 205.75C36.026 205.117 37.2095 204.165 38.0833 202.896C38.9592 201.599 39.4639 200.087 39.5975 198.359C39.727 196.684 39.4586 195.138 38.7924 193.723C38.1016 192.279 37.0682 191.116 35.6921 190.234C34.2894 189.35 32.6309 188.834 30.7166 188.686Z" fill="white"/>
<path d="M44.7349 174.272C44.2946 176.25 43.4552 177.934 42.2168 179.325C40.9784 180.716 39.4378 181.685 37.5952 182.231C35.7323 182.745 33.6946 182.756 31.4821 182.263C29.2956 181.777 27.4838 180.895 26.0467 179.619C24.5836 178.337 23.5992 176.807 23.0937 175.028C22.5679 173.217 22.5251 171.323 22.9654 169.344C23.4058 167.366 24.2451 165.681 25.4836 164.291C26.6959 162.894 28.2206 161.936 30.0574 161.416C31.9001 160.87 33.9277 160.843 36.1402 161.335C38.3527 161.828 40.1905 162.715 41.6536 163.997C43.0907 165.273 44.0722 166.816 44.598 168.627C45.1296 170.412 45.1752 172.293 44.7349 174.272ZM43.1731 173.924C43.515 172.388 43.4952 170.881 43.1139 169.403C42.7124 167.893 41.8986 166.578 40.6726 165.459C39.4466 164.339 37.8055 163.55 35.7491 163.092C33.7188 162.64 31.911 162.661 30.3258 163.156C28.7406 163.65 27.4619 164.485 26.4896 165.662C25.4914 166.833 24.8213 168.186 24.4795 169.722C24.1377 171.258 24.1704 172.768 24.5777 174.252C24.9648 175.704 25.7714 176.99 26.9974 178.11C28.2234 179.229 29.8515 180.015 31.8818 180.467C33.9382 180.925 35.7561 180.92 37.3355 180.452C38.9207 179.958 40.2095 179.138 41.202 177.993C42.1743 176.816 42.8313 175.46 43.1731 173.924Z" fill="white"/>
<path d="M38.0662 125.609L55.6788 140.043L55.0385 141.639L34.6053 140.899L49.8714 154.521L49.2311 156.118L26.5259 154.38L27.2258 152.636L47.6653 154.542L31.9908 140.756L32.6311 139.159L53.3985 140.033L37.3813 127.316L38.0662 125.609Z" fill="white"/>
<path d="M45.4582 112.396C46.7821 110.174 48.5475 108.773 50.7546 108.194C52.9388 107.602 55.3711 108.104 58.0515 109.701L68.9794 116.211L68.0787 117.723L57.2539 111.275C55.0316 109.951 53.0019 109.502 51.1648 109.929C49.3048 110.342 47.8016 111.51 46.6552 113.435C45.4542 115.451 45.1335 117.448 45.6931 119.427C46.2663 121.382 47.813 123.111 50.3331 124.612L60.4019 130.61L59.4806 132.156L40.8207 121.04L41.7419 119.494L45.6939 121.848C44.6103 120.489 44.0636 118.983 44.0538 117.333C44.0348 115.645 44.5029 113.999 45.4582 112.396Z" fill="white"/>
<path d="M82.2676 99.7459C80.6808 101.582 78.9783 102.736 77.1599 103.209C75.359 103.662 73.651 103.313 72.0359 102.164L73.239 100.772C74.3955 101.595 75.6614 101.843 77.0366 101.516C78.4293 101.169 79.7795 100.239 81.0873 98.7258C82.1684 97.4749 82.7101 96.216 82.7123 94.9492C82.7119 93.6447 82.2476 92.5914 81.3195 91.7893C80.6739 91.2313 79.9749 90.9797 79.2227 91.0345C78.4677 91.0516 77.7264 91.2569 76.9988 91.6502C76.2712 92.0435 75.3403 92.6312 74.2062 93.4133C72.8372 94.3449 71.6787 95.0531 70.7309 95.5381C69.763 96.0056 68.7396 96.2314 67.6608 96.2154C66.5819 96.1994 65.518 95.7381 64.4688 94.8314C63.7021 94.1687 63.1965 93.3264 62.9519 92.3044C62.6872 91.2649 62.7206 90.166 63.0522 89.0074C63.3837 87.8489 64.0029 86.7451 64.9096 85.696C66.3917 83.981 68.0199 82.9739 69.7942 82.6745C71.5658 82.3375 73.243 82.7826 74.8259 84.0096L73.6489 85.3715C72.5071 84.4904 71.2532 84.1469 69.8872 84.3409C68.5212 84.5349 67.2366 85.328 66.0335 86.7201C65.0221 87.8903 64.4878 89.1203 64.4305 90.4101C64.3731 91.6999 64.7783 92.7197 65.6458 93.4695C66.4125 94.1321 67.221 94.4608 68.0714 94.4556C68.9191 94.4127 69.7443 94.192 70.5472 93.7932C71.3473 93.3568 72.3419 92.7361 73.5311 91.9311C74.8276 91.0426 75.9236 90.3861 76.8191 89.9617C77.7119 89.4997 78.65 89.2707 79.6334 89.2747C80.5966 89.2612 81.5423 89.6556 82.4704 90.4577C83.3177 91.19 83.8839 92.0846 84.1688 93.1415C84.4538 94.1984 84.4304 95.3062 84.0989 96.4647C83.7673 97.6232 83.1569 98.7169 82.2676 99.7459Z" fill="white"/>
<path d="M80.9312 84.199C79.4059 82.5223 78.4035 80.7665 77.9239 78.9316C77.464 77.0788 77.5199 75.2976 78.0916 73.5879C78.665 71.8405 79.7111 70.276 81.23 68.8942C83.242 67.0639 85.3467 66.0685 87.544 65.9081C89.7611 65.7297 91.799 66.3452 93.6579 67.7545L92.2672 69.0196C90.7547 67.8721 89.0971 67.3973 87.2944 67.5952C85.5114 67.7752 83.8309 68.583 82.2528 70.0186C81.0693 71.0953 80.2365 72.3396 79.7545 73.7514C79.2545 75.1436 79.2021 76.6513 79.5973 78.2745C79.9942 79.8601 80.8926 81.4222 82.2923 82.9608C83.7099 84.5191 85.1892 85.5707 86.7303 86.1155C88.2911 86.6423 89.797 86.7324 91.2481 86.3857C92.6991 86.039 94.0164 85.3273 95.2 84.2506C96.778 82.815 97.7407 81.2182 98.0881 79.4602C98.4552 77.6842 98.1389 75.9892 97.1392 74.3751L98.5299 73.11C99.7396 75.0738 100.16 77.1607 99.7913 79.3708C99.4225 81.5809 98.242 83.5921 96.2497 85.4045C94.7309 86.7863 93.0746 87.6802 91.2809 88.0862C89.507 88.4742 87.7194 88.352 85.9183 87.7194C84.1189 87.0491 82.4565 85.8757 80.9312 84.199Z" fill="white"/>
<path d="M98.1983 60.99C97.6826 59.3842 97.7288 57.846 98.3369 56.3752C98.9293 54.8829 100.075 53.5141 101.774 52.2686L102.886 53.7849L102.402 54.1396C100.681 55.4008 99.6134 56.9439 99.1987 58.7688C98.7683 60.5722 99.365 62.5815 100.989 64.7968L108.391 74.8945L106.939 75.9586L94.098 58.4409L95.5498 57.3767L98.1983 60.99Z" fill="white"/>
<path d="M125.927 63.6848C124.17 64.6963 122.361 65.2151 120.499 65.2413C118.637 65.2674 116.882 64.7855 115.235 63.7955C113.598 62.7691 112.213 61.2737 111.082 59.3096C109.964 57.3685 109.39 55.4371 109.361 53.5155C109.318 51.5708 109.782 49.8112 110.752 48.2368C111.732 46.626 113.1 45.3148 114.857 44.3034C116.613 43.2919 118.422 42.7731 120.284 42.7469C122.133 42.6976 123.869 43.1747 125.493 44.178C127.141 45.168 128.53 46.6451 129.661 48.6093C130.792 50.5735 131.38 52.5279 131.422 54.4727C131.452 56.3943 130.977 58.1605 129.997 59.7713C129.04 61.3689 127.683 62.6733 125.927 63.6848ZM125.128 62.2983C126.492 61.5131 127.589 60.4807 128.422 59.2012C129.264 57.8852 129.684 56.397 129.682 54.7366C129.68 53.0762 129.153 51.3332 128.101 49.5076C127.063 47.7052 125.827 46.3863 124.392 45.5511C122.957 44.7158 121.477 44.3371 119.952 44.4151C118.414 44.4699 116.964 44.8899 115.6 45.6751C114.237 46.4604 113.146 47.5043 112.327 48.807C111.517 50.0732 111.114 51.5366 111.116 53.197C111.118 54.8574 111.639 56.5888 112.677 58.3912C113.728 60.2168 114.96 61.5539 116.372 62.4024C117.807 63.2377 119.282 63.6346 120.796 63.5931C122.321 63.5151 123.765 63.0835 125.128 62.2983Z" fill="white"/>
<path d="M127.707 29.1307L140.046 56.0365L138.41 56.7868L126.071 29.8811L127.707 29.1307Z" fill="white"/>
<path d="M136.504 25.357L147.523 52.8295L145.852 53.4995L134.833 26.027L136.504 25.357Z" fill="white"/>
<path d="M158.803 36.9963C158.299 34.8135 158.288 32.8048 158.768 30.97C159.274 29.1292 160.191 27.5904 161.521 26.3534C162.876 25.1104 164.541 24.2612 166.516 23.8058C168.673 23.3085 170.67 23.4228 172.506 24.1486C174.337 24.8485 175.775 25.981 176.82 27.5462L173.773 14.333L175.527 13.9285L182.178 42.7716L180.424 43.1761L179.13 37.5634C178.908 39.4482 178.146 41.129 176.844 42.6058C175.537 44.0567 173.766 45.0398 171.531 45.5551C169.556 46.0105 167.688 45.9762 165.925 45.4522C164.182 44.8962 162.68 43.9016 161.419 42.4683C160.178 41.003 159.306 39.179 158.803 36.9963ZM177.979 32.5743C177.554 30.7294 176.79 29.1952 175.687 27.9718C174.604 26.7164 173.312 25.8647 171.813 25.4167C170.308 24.9427 168.737 24.8945 167.1 25.272C165.385 25.6675 163.965 26.3918 162.84 27.4449C161.708 28.4721 160.941 29.7711 160.537 31.3421C160.132 32.913 160.152 34.6599 160.596 36.5828C161.039 38.5057 161.786 40.0848 162.837 41.3202C163.888 42.5556 165.151 43.4003 166.624 43.8543C168.123 44.3023 169.717 44.3315 171.406 43.9421C173.043 43.5646 174.437 42.8463 175.588 41.7871C176.76 40.696 177.561 39.362 177.991 37.785C178.415 36.1821 178.411 34.4452 177.979 32.5743Z" fill="white"/>
<path d="M195.67 41.6533C193.65 41.8251 191.792 41.5282 190.094 40.7626C188.397 39.9971 187.012 38.8169 185.939 37.222C184.891 35.5983 184.271 33.6572 184.079 31.3987C183.889 29.1668 184.188 27.1743 184.976 25.4212C185.761 23.6416 186.927 22.2444 188.473 21.2297C190.044 20.1862 191.839 19.5786 193.858 19.4068C195.877 19.2351 197.736 19.532 199.434 20.2975C201.129 21.0365 202.499 22.2045 203.545 23.8017C204.618 25.3965 205.25 27.3232 205.442 29.5817C205.634 31.8402 205.337 33.8593 204.552 35.6389C203.764 37.392 202.585 38.7903 201.015 39.8338C199.471 40.8751 197.689 41.4816 195.67 41.6533ZM195.534 40.0591C197.102 39.9257 198.534 39.456 199.83 38.6499C201.151 37.815 202.162 36.6451 202.864 35.1402C203.565 33.6353 203.827 31.8334 203.648 29.7343C203.472 27.6618 202.911 25.9431 201.965 24.5784C201.02 23.2136 199.84 22.2434 198.426 21.6678C197.01 21.0657 195.518 20.8313 193.95 20.9646C192.383 21.0979 190.952 21.5809 189.658 22.4136C188.388 23.2174 187.402 24.3718 186.701 25.8767C185.999 27.3816 185.736 29.1703 185.912 31.2428C186.091 33.3419 186.64 35.0749 187.559 36.4419C188.505 37.8067 189.672 38.7913 191.062 39.3957C192.476 39.9713 193.967 40.1924 195.534 40.0591Z" fill="white"/>
<path d="M240.757 20.6672L232.263 41.7954L230.549 41.6629L225.132 21.9468L216.71 40.5932L214.995 40.4606L209.849 18.278L211.724 18.4229L216.03 38.4945L224.486 19.4094L226.2 19.542L231.589 39.617L238.922 20.5254L240.757 20.6672Z" fill="white"/>
<path d="M256.084 23.8299C258.6 24.4303 260.464 25.6974 261.675 27.6313C262.892 29.5392 263.138 32.0106 262.414 35.0454L259.462 47.418L257.75 47.0095L260.674 34.7536C261.275 32.2375 261.097 30.1665 260.142 28.5403C259.193 26.8882 257.629 25.8022 255.45 25.2823C253.167 24.7376 251.165 25.0276 249.444 26.1521C247.749 27.2828 246.561 29.2747 245.88 32.1279L243.159 43.5279L241.409 43.1101L246.45 21.9833L248.201 22.401L247.133 26.8754C248.107 25.4355 249.381 24.4646 250.954 23.9626C252.558 23.4409 254.269 23.3966 256.084 23.8299Z" fill="white"/>
<path d="M279.145 55.2105C276.921 54.2402 275.314 52.957 274.322 51.3609C273.356 49.7755 273.181 48.0411 273.799 46.1577L275.486 46.8934C275.043 48.2422 275.182 49.5246 275.902 50.7408C276.647 51.9677 277.936 52.981 279.769 53.7806C281.285 54.4417 282.648 54.5853 283.858 54.2114C285.104 53.8238 285.972 53.0678 286.462 51.9435C286.803 51.1613 286.836 50.4192 286.56 49.7171C286.32 49.0012 285.904 48.3542 285.312 47.7762C284.721 47.1981 283.883 46.4836 282.8 45.6328C281.504 44.6019 280.484 43.706 279.739 42.9448C279.006 42.1592 278.486 41.249 278.181 40.214C277.876 39.1791 278.001 38.0261 278.555 36.7551C278.961 35.8263 279.615 35.0935 280.518 34.5566C281.432 33.9952 282.492 33.7009 283.696 33.6736C284.901 33.6464 286.139 33.91 287.41 34.4644C289.488 35.3707 290.933 36.6266 291.745 38.2321C292.593 39.8238 292.666 41.5575 291.964 43.4333L290.314 42.7136C290.816 41.3618 290.772 40.0624 290.181 38.8155C289.591 37.5687 288.452 36.5774 286.766 35.8417C285.348 35.2232 284.015 35.0781 282.766 35.4062C281.517 35.7343 280.664 36.4238 280.205 37.4749C279.8 38.4037 279.726 39.2733 279.984 40.0839C280.276 40.8806 280.732 41.6031 281.351 42.2514C282.005 42.8859 282.893 43.6515 284.015 44.5481C285.248 45.5225 286.2 46.3743 286.871 47.1034C287.578 47.8188 288.075 48.6466 288.363 49.5869C288.662 50.5027 288.566 51.5228 288.075 52.6472C287.627 53.6738 286.941 54.4799 286.017 55.0657C285.092 55.6515 284.027 55.9581 282.822 55.9853C281.618 56.0126 280.392 55.7543 279.145 55.2105Z" fill="white"/>
<path d="M293.963 49.5277C295.116 47.5761 296.499 46.1009 298.111 45.102C299.746 44.1167 301.465 43.6453 303.267 43.6879C305.105 43.7211 306.909 44.2598 308.677 45.3042C311.019 46.6877 312.59 48.4057 313.391 50.4582C314.214 52.5243 314.226 54.6532 313.427 56.8447L311.809 55.8885C312.46 54.105 312.425 52.3811 311.705 50.7167C311.007 49.0659 309.74 47.698 307.904 46.6129C306.526 45.7991 305.092 45.3699 303.6 45.3252C302.123 45.2575 300.666 45.6517 299.232 46.5075C297.833 47.354 296.605 48.6727 295.547 50.4636C294.476 52.2774 293.907 54.0009 293.84 55.634C293.797 57.2808 294.154 58.7464 294.913 60.0309C295.672 61.3154 296.74 62.3646 298.118 63.1783C299.954 64.2634 301.764 64.713 303.546 64.527C305.352 64.3546 306.878 63.5529 308.126 62.1221L309.745 63.0783C308.225 64.8129 306.354 65.8295 304.134 66.1282C301.913 66.427 299.643 65.8914 297.324 64.5215C295.556 63.4771 294.214 62.1577 293.298 60.5633C292.404 58.9824 291.994 57.2382 292.068 55.3306C292.179 53.4136 292.81 51.4793 293.963 49.5277Z" fill="white"/>
<path d="M321.336 59.3048C322.719 58.3398 324.203 57.9317 325.787 58.0806C327.388 58.208 329.033 58.9007 330.723 60.1585L329.601 61.6666L329.119 61.3084C327.408 60.0346 325.619 59.4678 323.753 59.608C321.903 59.7268 320.158 60.8878 318.518 63.0912L311.042 73.1346L309.598 72.0598L322.567 54.6363L324.011 55.711L321.336 59.3048Z" fill="white"/>
<path d="M325.976 85.777C324.487 84.4024 323.452 82.8303 322.872 81.0607C322.291 79.2911 322.228 77.4726 322.682 75.6051C323.173 73.736 324.188 71.9687 325.725 70.3032C327.244 68.6573 328.917 67.5336 330.742 66.9322C332.586 66.3112 334.403 66.2291 336.196 66.6858C338.025 67.141 339.685 68.056 341.174 69.4306C342.663 70.8053 343.698 72.3774 344.278 74.1469C344.877 75.8969 344.939 77.6966 344.466 79.5461C344.012 81.4136 343.017 83.1801 341.479 84.8457C339.942 86.5112 338.251 87.6545 336.408 88.2755C334.583 88.8768 332.755 88.9499 330.925 88.4947C329.115 88.0576 327.465 87.1517 325.976 85.777ZM327.061 84.6014C328.217 85.6685 329.53 86.4086 331 86.8216C332.507 87.2331 334.053 87.1902 335.637 86.6928C337.221 86.1954 338.728 85.1727 340.157 83.6247C341.567 82.0964 342.457 80.5228 342.827 78.9039C343.196 77.2851 343.116 75.7597 342.587 74.3278C342.076 72.8763 341.243 71.6169 340.087 70.5498C338.93 69.4826 337.609 68.7523 336.121 68.3589C334.671 67.964 333.154 68.0152 331.57 68.5126C329.985 69.01 328.488 70.0229 327.077 71.5512C325.648 73.0992 324.739 74.6736 324.35 76.2743C323.981 77.8931 324.042 79.4193 324.534 80.8527C325.063 82.2846 325.905 83.5342 327.061 84.6014Z" fill="white"/>
<path d="M360.192 77.913L338.153 97.672L336.951 96.3317L358.991 76.5728L360.192 77.913Z" fill="white"/>
<path d="M366.285 85.064L343.336 103.759L342.199 102.363L365.149 83.6685L366.285 85.064Z" fill="white"/>
<path d="M361.793 109.83C363.726 108.697 365.639 108.086 367.534 107.997C369.442 107.93 371.184 108.346 372.762 109.245C374.353 110.168 375.661 111.503 376.685 113.252C377.804 115.162 378.291 117.101 378.147 119.071C378.026 121.027 377.374 122.738 376.193 124.203L387.893 117.349L388.803 118.902L363.262 133.863L362.352 132.31L367.322 129.399C365.457 129.749 363.626 129.524 361.828 128.723C360.052 127.909 358.585 126.512 357.426 124.533C356.402 122.785 355.876 120.991 355.85 119.152C355.86 117.323 356.361 115.592 357.352 113.961C358.38 112.339 359.86 110.962 361.793 109.83ZM371.74 126.811C373.374 125.854 374.61 124.666 375.448 123.248C376.323 121.839 376.75 120.353 376.73 118.789C376.733 117.211 376.31 115.697 375.46 114.247C374.571 112.729 373.455 111.59 372.114 110.83C370.796 110.057 369.327 109.712 367.707 109.796C366.087 109.879 364.426 110.42 362.723 111.417C361.02 112.415 359.736 113.599 358.871 114.972C358.006 116.344 357.577 117.8 357.584 119.342C357.604 120.906 358.052 122.436 358.928 123.932C359.777 125.381 360.879 126.497 362.234 127.28C363.625 128.072 365.137 128.438 366.771 128.377C368.427 128.303 370.084 127.781 371.74 126.811Z" fill="white"/>
<path d="M368.313 146.34C367.544 144.464 367.271 142.602 367.493 140.753C367.715 138.904 368.427 137.229 369.627 135.729C370.863 134.243 372.529 133.07 374.626 132.21C376.699 131.361 378.69 131.049 380.598 131.276C382.531 131.492 384.213 132.186 385.644 133.358C387.11 134.544 388.228 136.075 388.996 137.95C389.765 139.825 390.038 141.687 389.816 143.536C389.618 145.375 388.914 147.033 387.703 148.509C386.503 150.009 384.854 151.189 382.756 152.049C380.659 152.908 378.644 153.23 376.711 153.014C374.802 152.787 373.115 152.081 371.649 150.895C370.193 149.733 369.081 148.215 368.313 146.34ZM369.793 145.733C370.39 147.189 371.267 148.414 372.424 149.41C373.616 150.42 375.035 151.035 376.681 151.253C378.327 151.472 380.125 151.182 382.074 150.383C383.999 149.595 385.47 148.545 386.489 147.234C387.508 145.923 388.081 144.507 388.207 142.985C388.357 141.454 388.134 139.96 387.537 138.504C386.941 137.049 386.052 135.828 384.87 134.843C383.722 133.872 382.326 133.277 380.68 133.058C379.034 132.839 377.249 133.124 375.324 133.913C373.375 134.712 371.886 135.754 370.856 137.041C369.838 138.352 369.248 139.76 369.087 141.267C368.961 142.789 369.197 144.277 369.793 145.733Z" fill="white"/>
<path d="M401.616 182.545L378.915 180.76L378.528 179.084L395.721 168.018L375.41 165.559L375.023 163.883L394.651 152.338L395.073 154.169L377.209 164.282L397.949 166.642L398.336 168.318L380.792 179.465L401.203 180.752L401.616 182.545Z" fill="white"/>
<path d="M403.139 198.174C403.318 200.754 402.666 202.911 401.183 204.645C399.726 206.377 397.442 207.351 394.329 207.567L381.64 208.45L381.518 206.694L394.088 205.82C396.668 205.64 398.591 204.852 399.857 203.454C401.15 202.054 401.719 200.237 401.563 198.002C401.4 195.661 400.525 193.838 398.937 192.531C397.351 191.252 395.095 190.714 392.169 190.917L380.477 191.73L380.352 189.935L402.02 188.428L402.145 190.223L397.556 190.542C399.221 191.041 400.529 191.966 401.478 193.317C402.456 194.693 403.009 196.311 403.139 198.174Z" fill="white"/>
</svg>
